<svg xmlns="http://www.w3.org/2000/svg" width="1141.5" height="1141.5" viewBox="0 0 1141.5 1141.5">
  <g id="Group_1416" data-name="Group 1416" transform="translate(-2733 -9943.368)">
    <g id="Ellipse_344" data-name="Ellipse 344" transform="translate(3005.935 10214.795)" fill="rgba(255,255,255,0)" stroke="#fff" stroke-width="1">
      <circle cx="297.815" cy="297.815" r="297.815" stroke="none"/>
      <circle cx="297.815" cy="297.815" r="297.315" fill="none"/>
    </g>
    <g id="Ellipse_345" data-name="Ellipse 345" transform="translate(2953.157 10162.018)" fill="rgba(255,255,255,0)" stroke="#fff" stroke-width="1">
      <circle cx="350.593" cy="350.593" r="350.593" stroke="none"/>
      <circle cx="350.593" cy="350.593" r="350.093" fill="none"/>
    </g>
    <g id="Ellipse_346" data-name="Ellipse 346" transform="translate(2892.84 10103.208)" fill="rgba(255,255,255,0)" stroke="#fff" stroke-width="1">
      <circle cx="409.402" cy="409.402" r="409.402" stroke="none"/>
      <circle cx="409.402" cy="409.402" r="408.902" fill="none"/>
    </g>
    <g id="Ellipse_347" data-name="Ellipse 347" transform="translate(2838.555 10048.923)" fill="rgba(255,255,255,0)" stroke="#fff" stroke-width="1">
      <circle cx="462.933" cy="462.933" r="462.933" stroke="none"/>
      <circle cx="462.933" cy="462.933" r="462.433" fill="none"/>
    </g>
    <g id="Ellipse_348" data-name="Ellipse 348" transform="translate(2785.777 9996.146)" fill="rgba(255,255,255,0)" stroke="#fff" stroke-width="1">
      <circle cx="517.973" cy="517.973" r="517.973" stroke="none"/>
      <circle cx="517.973" cy="517.973" r="517.473" fill="none"/>
    </g>
    <g id="Ellipse_349" data-name="Ellipse 349" transform="translate(2733 9943.368)" fill="rgba(255,255,255,0)" stroke="#fff" stroke-width="1">
      <circle cx="570.75" cy="570.75" r="570.75" stroke="none"/>
      <circle cx="570.75" cy="570.75" r="570.25" fill="none"/>
    </g>
    <g id="Ellipse_350" data-name="Ellipse 350" transform="translate(3058.712 10267.572)" fill="rgba(255,255,255,0)" stroke="#fff" stroke-width="1">
      <circle cx="243.53" cy="243.53" r="243.53" stroke="none"/>
      <circle cx="243.53" cy="243.53" r="243.03" fill="none"/>
    </g>
    <g id="Ellipse_351" data-name="Ellipse 351" transform="translate(3114.505 10324.873)" fill="rgba(255,255,255,0)" stroke="#fff" stroke-width="1">
      <circle cx="189.245" cy="189.245" r="189.245" stroke="none"/>
      <circle cx="189.245" cy="189.245" r="188.745" fill="none"/>
    </g>
    <g id="Ellipse_352" data-name="Ellipse 352" transform="translate(3167.283 10377.65)" fill="rgba(255,255,255,0)" stroke="#fff" stroke-width="1">
      <circle cx="136.467" cy="136.467" r="136.467" stroke="none"/>
      <circle cx="136.467" cy="136.467" r="135.967" fill="none"/>
    </g>
  </g>
</svg>
