<svg xmlns="http://www.w3.org/2000/svg" width="107.518" height="102.392" viewBox="0 0 107.518 102.392">
  <g id="Group_713" data-name="Group 713" transform="translate(-719.925 -311.254)" opacity="0.3">
    <g id="Group_641" data-name="Group 641" transform="translate(732.296 311.254)">
      <g id="Group_625" data-name="Group 625">
        <g id="Group_621" data-name="Group 621" transform="translate(77.233 0.001)">
          <ellipse id="Ellipse_44" data-name="Ellipse 44" cx="2.27" cy="2.263" rx="2.27" ry="2.263" fill="#ffb624"/>
        </g>
        <g id="Group_622" data-name="Group 622" transform="translate(51.489)">
          <path id="Path_380" data-name="Path 380" d="M766.949,315.782a2.264,2.264,0,1,1,2.27-2.263A2.266,2.266,0,0,1,766.949,315.782Z" transform="translate(-764.679 -311.254)" fill="#ffb624"/>
        </g>
        <g id="Group_623" data-name="Group 623" transform="translate(25.744)">
          <path id="Path_381" data-name="Path 381" d="M748.907,315.782a2.264,2.264,0,1,1,2.27-2.263A2.266,2.266,0,0,1,748.907,315.782Z" transform="translate(-746.637 -311.254)" fill="#ffb624"/>
        </g>
        <g id="Group_624" data-name="Group 624">
          <path id="Path_382" data-name="Path 382" d="M730.865,315.782a2.264,2.264,0,1,1,2.27-2.263A2.267,2.267,0,0,1,730.865,315.782Z" transform="translate(-728.595 -311.254)" fill="#ffb624"/>
        </g>
      </g>
      <g id="Group_630" data-name="Group 630" transform="translate(0 28.02)">
        <g id="Group_626" data-name="Group 626" transform="translate(77.233)">
          <ellipse id="Ellipse_45" data-name="Ellipse 45" cx="2.27" cy="2.264" rx="2.27" ry="2.264" fill="#ffb624"/>
        </g>
        <g id="Group_627" data-name="Group 627" transform="translate(51.489 0.001)">
          <path id="Path_383" data-name="Path 383" d="M766.949,335.417a2.263,2.263,0,1,1,2.27-2.263A2.266,2.266,0,0,1,766.949,335.417Z" transform="translate(-764.679 -330.891)" fill="#ffb624"/>
        </g>
        <g id="Group_628" data-name="Group 628" transform="translate(25.744 0.001)">
          <path id="Path_384" data-name="Path 384" d="M748.907,335.417a2.263,2.263,0,1,1,2.27-2.263A2.266,2.266,0,0,1,748.907,335.417Z" transform="translate(-746.637 -330.891)" fill="#ffb624"/>
        </g>
        <g id="Group_629" data-name="Group 629" transform="translate(0 0.001)">
          <path id="Path_385" data-name="Path 385" d="M730.865,335.417a2.263,2.263,0,1,1,2.27-2.263A2.267,2.267,0,0,1,730.865,335.417Z" transform="translate(-728.595 -330.891)" fill="#ffb624"/>
        </g>
      </g>
      <g id="Group_635" data-name="Group 635" transform="translate(0 56.039)">
        <g id="Group_631" data-name="Group 631" transform="translate(77.233)">
          <path id="Path_386" data-name="Path 386" d="M784.991,355.053a2.263,2.263,0,1,1,2.27-2.263A2.266,2.266,0,0,1,784.991,355.053Z" transform="translate(-782.721 -350.527)" fill="#ffb624"/>
        </g>
        <g id="Group_632" data-name="Group 632" transform="translate(51.489)">
          <path id="Path_387" data-name="Path 387" d="M766.949,355.053a2.263,2.263,0,1,1,2.27-2.263A2.266,2.266,0,0,1,766.949,355.053Z" transform="translate(-764.679 -350.527)" fill="#ffb624"/>
        </g>
        <g id="Group_633" data-name="Group 633" transform="translate(25.744)">
          <path id="Path_388" data-name="Path 388" d="M748.907,355.053a2.263,2.263,0,1,1,2.27-2.263A2.266,2.266,0,0,1,748.907,355.053Z" transform="translate(-746.637 -350.527)" fill="#ffb624"/>
        </g>
        <g id="Group_634" data-name="Group 634">
          <path id="Path_389" data-name="Path 389" d="M730.865,355.053a2.263,2.263,0,1,1,2.27-2.263A2.267,2.267,0,0,1,730.865,355.053Z" transform="translate(-728.595 -350.527)" fill="#ffb624"/>
        </g>
      </g>
      <g id="Group_640" data-name="Group 640" transform="translate(0 84.058)">
        <g id="Group_636" data-name="Group 636" transform="translate(77.233 0)">
          <ellipse id="Ellipse_46" data-name="Ellipse 46" cx="2.27" cy="2.264" rx="2.27" ry="2.264" fill="#ffb624"/>
        </g>
        <g id="Group_637" data-name="Group 637" transform="translate(51.489)">
          <path id="Path_390" data-name="Path 390" d="M766.949,374.691a2.264,2.264,0,1,1,2.27-2.265A2.267,2.267,0,0,1,766.949,374.691Z" transform="translate(-764.679 -370.163)" fill="#ffb624"/>
        </g>
        <g id="Group_638" data-name="Group 638" transform="translate(25.744)">
          <path id="Path_391" data-name="Path 391" d="M748.907,374.691a2.264,2.264,0,1,1,2.27-2.265A2.267,2.267,0,0,1,748.907,374.691Z" transform="translate(-746.637 -370.163)" fill="#ffb624"/>
        </g>
        <g id="Group_639" data-name="Group 639">
          <path id="Path_392" data-name="Path 392" d="M730.865,374.691a2.264,2.264,0,1,1,2.27-2.265A2.268,2.268,0,0,1,730.865,374.691Z" transform="translate(-728.595 -370.163)" fill="#ffb624"/>
        </g>
      </g>
    </g>
    <g id="Group_662" data-name="Group 662" transform="translate(732.296 325.062)">
      <g id="Group_646" data-name="Group 646">
        <g id="Group_642" data-name="Group 642" transform="translate(77.233)">
          <path id="Path_393" data-name="Path 393" d="M784.991,325.457a2.263,2.263,0,1,1,2.27-2.263A2.266,2.266,0,0,1,784.991,325.457Z" transform="translate(-782.721 -320.931)" fill="#ffb624"/>
        </g>
        <g id="Group_643" data-name="Group 643" transform="translate(51.489)">
          <path id="Path_394" data-name="Path 394" d="M766.949,325.457a2.263,2.263,0,1,1,2.27-2.263A2.266,2.266,0,0,1,766.949,325.457Z" transform="translate(-764.679 -320.931)" fill="#ffb624"/>
        </g>
        <g id="Group_644" data-name="Group 644" transform="translate(25.744)">
          <path id="Path_395" data-name="Path 395" d="M748.907,325.457a2.263,2.263,0,1,1,2.27-2.263A2.266,2.266,0,0,1,748.907,325.457Z" transform="translate(-746.637 -320.931)" fill="#ffb624"/>
        </g>
        <g id="Group_645" data-name="Group 645">
          <path id="Path_396" data-name="Path 396" d="M730.865,325.457a2.263,2.263,0,1,1,2.27-2.263A2.267,2.267,0,0,1,730.865,325.457Z" transform="translate(-728.595 -320.931)" fill="#ffb624"/>
        </g>
      </g>
      <g id="Group_651" data-name="Group 651" transform="translate(0 28.018)">
        <g id="Group_647" data-name="Group 647" transform="translate(77.233)">
          <ellipse id="Ellipse_47" data-name="Ellipse 47" cx="2.27" cy="2.264" rx="2.27" ry="2.264" fill="#ffb624"/>
        </g>
        <g id="Group_648" data-name="Group 648" transform="translate(51.489 0)">
          <path id="Path_397" data-name="Path 397" d="M766.949,345.093a2.263,2.263,0,1,1,2.27-2.263A2.266,2.266,0,0,1,766.949,345.093Z" transform="translate(-764.679 -340.567)" fill="#ffb624"/>
        </g>
        <g id="Group_649" data-name="Group 649" transform="translate(25.744 0)">
          <path id="Path_398" data-name="Path 398" d="M748.907,345.093a2.263,2.263,0,1,1,2.27-2.263A2.266,2.266,0,0,1,748.907,345.093Z" transform="translate(-746.637 -340.567)" fill="#ffb624"/>
        </g>
        <g id="Group_650" data-name="Group 650" transform="translate(0 0)">
          <path id="Path_399" data-name="Path 399" d="M730.865,345.093a2.263,2.263,0,1,1,2.27-2.263A2.267,2.267,0,0,1,730.865,345.093Z" transform="translate(-728.595 -340.567)" fill="#ffb624"/>
        </g>
      </g>
      <g id="Group_656" data-name="Group 656" transform="translate(0 56.038)">
        <g id="Group_652" data-name="Group 652" transform="translate(77.233)">
          <path id="Path_400" data-name="Path 400" d="M784.991,364.731a2.264,2.264,0,1,1,2.27-2.263A2.267,2.267,0,0,1,784.991,364.731Z" transform="translate(-782.721 -360.203)" fill="#ffb624"/>
        </g>
        <g id="Group_653" data-name="Group 653" transform="translate(51.489)">
          <path id="Path_401" data-name="Path 401" d="M766.949,364.731a2.264,2.264,0,1,1,2.27-2.263A2.267,2.267,0,0,1,766.949,364.731Z" transform="translate(-764.679 -360.203)" fill="#ffb624"/>
        </g>
        <g id="Group_654" data-name="Group 654" transform="translate(25.744)">
          <path id="Path_402" data-name="Path 402" d="M748.907,364.731a2.264,2.264,0,1,1,2.27-2.263A2.267,2.267,0,0,1,748.907,364.731Z" transform="translate(-746.637 -360.203)" fill="#ffb624"/>
        </g>
        <g id="Group_655" data-name="Group 655">
          <path id="Path_403" data-name="Path 403" d="M730.865,364.731a2.264,2.264,0,1,1,2.27-2.263A2.268,2.268,0,0,1,730.865,364.731Z" transform="translate(-728.595 -360.203)" fill="#ffb624"/>
        </g>
      </g>
      <g id="Group_661" data-name="Group 661" transform="translate(0 84.056)">
        <g id="Group_657" data-name="Group 657" transform="translate(77.233 0.001)">
          <ellipse id="Ellipse_48" data-name="Ellipse 48" cx="2.27" cy="2.264" rx="2.27" ry="2.264" fill="#ffb624"/>
        </g>
        <g id="Group_658" data-name="Group 658" transform="translate(51.489)">
          <path id="Path_404" data-name="Path 404" d="M766.949,384.367a2.264,2.264,0,1,1,2.27-2.263A2.266,2.266,0,0,1,766.949,384.367Z" transform="translate(-764.679 -379.839)" fill="#ffb624"/>
        </g>
        <g id="Group_659" data-name="Group 659" transform="translate(25.744)">
          <path id="Path_405" data-name="Path 405" d="M748.907,384.367a2.264,2.264,0,1,1,2.27-2.263A2.266,2.266,0,0,1,748.907,384.367Z" transform="translate(-746.637 -379.839)" fill="#ffb624"/>
        </g>
        <g id="Group_660" data-name="Group 660">
          <path id="Path_406" data-name="Path 406" d="M730.865,384.367a2.264,2.264,0,1,1,2.27-2.263A2.267,2.267,0,0,1,730.865,384.367Z" transform="translate(-728.595 -379.839)" fill="#ffb624"/>
        </g>
      </g>
    </g>
    <g id="Group_687" data-name="Group 687" transform="translate(719.925 311.254)">
      <g id="Group_668" data-name="Group 668">
        <g id="Group_663" data-name="Group 663" transform="translate(102.977)">
          <path id="Path_407" data-name="Path 407" d="M794.363,315.782a2.264,2.264,0,1,1,2.27-2.263A2.266,2.266,0,0,1,794.363,315.782Z" transform="translate(-792.093 -311.254)" fill="#ffb624"/>
        </g>
        <g id="Group_664" data-name="Group 664" transform="translate(77.233 0.001)">
          <ellipse id="Ellipse_49" data-name="Ellipse 49" cx="2.27" cy="2.263" rx="2.27" ry="2.263" fill="#ffb624"/>
        </g>
        <g id="Group_665" data-name="Group 665" transform="translate(51.489)">
          <path id="Path_408" data-name="Path 408" d="M758.279,315.782a2.264,2.264,0,1,1,2.27-2.263A2.266,2.266,0,0,1,758.279,315.782Z" transform="translate(-756.009 -311.254)" fill="#ffb624"/>
        </g>
        <g id="Group_666" data-name="Group 666" transform="translate(25.744 0.001)">
          <ellipse id="Ellipse_50" data-name="Ellipse 50" cx="2.27" cy="2.263" rx="2.27" ry="2.263" fill="#ffb624"/>
        </g>
        <g id="Group_667" data-name="Group 667">
          <path id="Path_409" data-name="Path 409" d="M722.2,315.782a2.264,2.264,0,1,1,2.27-2.263A2.266,2.266,0,0,1,722.2,315.782Z" transform="translate(-719.925 -311.254)" fill="#ffb624"/>
        </g>
      </g>
      <g id="Group_674" data-name="Group 674" transform="translate(0 28.02)">
        <g id="Group_669" data-name="Group 669" transform="translate(102.977 0.001)">
          <path id="Path_410" data-name="Path 410" d="M794.363,335.417a2.263,2.263,0,1,1,2.27-2.263A2.266,2.266,0,0,1,794.363,335.417Z" transform="translate(-792.093 -330.891)" fill="#ffb624"/>
        </g>
        <g id="Group_670" data-name="Group 670" transform="translate(77.233)">
          <ellipse id="Ellipse_51" data-name="Ellipse 51" cx="2.27" cy="2.264" rx="2.27" ry="2.264" fill="#ffb624"/>
        </g>
        <g id="Group_671" data-name="Group 671" transform="translate(51.489 0.001)">
          <path id="Path_411" data-name="Path 411" d="M758.279,335.417a2.263,2.263,0,1,1,2.27-2.263A2.266,2.266,0,0,1,758.279,335.417Z" transform="translate(-756.009 -330.891)" fill="#ffb624"/>
        </g>
        <g id="Group_672" data-name="Group 672" transform="translate(25.744)">
          <ellipse id="Ellipse_52" data-name="Ellipse 52" cx="2.27" cy="2.264" rx="2.27" ry="2.264" fill="#ffb624"/>
        </g>
        <g id="Group_673" data-name="Group 673" transform="translate(0 0.001)">
          <path id="Path_412" data-name="Path 412" d="M722.2,335.417a2.263,2.263,0,1,1,2.27-2.263A2.266,2.266,0,0,1,722.2,335.417Z" transform="translate(-719.925 -330.891)" fill="#ffb624"/>
        </g>
      </g>
      <g id="Group_680" data-name="Group 680" transform="translate(0 56.039)">
        <g id="Group_675" data-name="Group 675" transform="translate(102.977)">
          <path id="Path_413" data-name="Path 413" d="M794.363,355.053a2.263,2.263,0,1,1,2.27-2.263A2.266,2.266,0,0,1,794.363,355.053Z" transform="translate(-792.093 -350.527)" fill="#ffb624"/>
        </g>
        <g id="Group_676" data-name="Group 676" transform="translate(77.233)">
          <path id="Path_414" data-name="Path 414" d="M776.321,355.053a2.263,2.263,0,1,1,2.27-2.263A2.266,2.266,0,0,1,776.321,355.053Z" transform="translate(-774.051 -350.527)" fill="#ffb624"/>
        </g>
        <g id="Group_677" data-name="Group 677" transform="translate(51.489)">
          <path id="Path_415" data-name="Path 415" d="M758.279,355.053a2.263,2.263,0,1,1,2.27-2.263A2.266,2.266,0,0,1,758.279,355.053Z" transform="translate(-756.009 -350.527)" fill="#ffb624"/>
        </g>
        <g id="Group_678" data-name="Group 678" transform="translate(25.744)">
          <path id="Path_416" data-name="Path 416" d="M740.237,355.053a2.263,2.263,0,1,1,2.27-2.263A2.266,2.266,0,0,1,740.237,355.053Z" transform="translate(-737.967 -350.527)" fill="#ffb624"/>
        </g>
        <g id="Group_679" data-name="Group 679">
          <path id="Path_417" data-name="Path 417" d="M722.2,355.053a2.263,2.263,0,1,1,2.27-2.263A2.266,2.266,0,0,1,722.2,355.053Z" transform="translate(-719.925 -350.527)" fill="#ffb624"/>
        </g>
      </g>
      <g id="Group_686" data-name="Group 686" transform="translate(0 84.058)">
        <g id="Group_681" data-name="Group 681" transform="translate(102.977)">
          <path id="Path_418" data-name="Path 418" d="M794.363,374.691a2.264,2.264,0,1,1,2.27-2.265A2.267,2.267,0,0,1,794.363,374.691Z" transform="translate(-792.093 -370.163)" fill="#ffb624"/>
        </g>
        <g id="Group_682" data-name="Group 682" transform="translate(77.233 0)">
          <ellipse id="Ellipse_53" data-name="Ellipse 53" cx="2.27" cy="2.264" rx="2.27" ry="2.264" fill="#ffb624"/>
        </g>
        <g id="Group_683" data-name="Group 683" transform="translate(51.489)">
          <path id="Path_419" data-name="Path 419" d="M758.279,374.691a2.264,2.264,0,1,1,2.27-2.265A2.267,2.267,0,0,1,758.279,374.691Z" transform="translate(-756.009 -370.163)" fill="#ffb624"/>
        </g>
        <g id="Group_684" data-name="Group 684" transform="translate(25.744 0)">
          <ellipse id="Ellipse_54" data-name="Ellipse 54" cx="2.27" cy="2.264" rx="2.27" ry="2.264" fill="#ffb624"/>
        </g>
        <g id="Group_685" data-name="Group 685">
          <path id="Path_420" data-name="Path 420" d="M722.2,374.691a2.264,2.264,0,1,1,2.27-2.265A2.267,2.267,0,0,1,722.2,374.691Z" transform="translate(-719.925 -370.163)" fill="#ffb624"/>
        </g>
      </g>
    </g>
    <g id="Group_712" data-name="Group 712" transform="translate(719.925 325.062)">
      <g id="Group_693" data-name="Group 693">
        <g id="Group_688" data-name="Group 688" transform="translate(102.977)">
          <path id="Path_421" data-name="Path 421" d="M794.363,325.457a2.263,2.263,0,1,1,2.27-2.263A2.266,2.266,0,0,1,794.363,325.457Z" transform="translate(-792.093 -320.931)" fill="#ffb624"/>
        </g>
        <g id="Group_689" data-name="Group 689" transform="translate(77.233)">
          <path id="Path_422" data-name="Path 422" d="M776.321,325.457a2.263,2.263,0,1,1,2.27-2.263A2.266,2.266,0,0,1,776.321,325.457Z" transform="translate(-774.051 -320.931)" fill="#ffb624"/>
        </g>
        <g id="Group_690" data-name="Group 690" transform="translate(51.489)">
          <path id="Path_423" data-name="Path 423" d="M758.279,325.457a2.263,2.263,0,1,1,2.27-2.263A2.266,2.266,0,0,1,758.279,325.457Z" transform="translate(-756.009 -320.931)" fill="#ffb624"/>
        </g>
        <g id="Group_691" data-name="Group 691" transform="translate(25.744)">
          <path id="Path_424" data-name="Path 424" d="M740.237,325.457a2.263,2.263,0,1,1,2.27-2.263A2.266,2.266,0,0,1,740.237,325.457Z" transform="translate(-737.967 -320.931)" fill="#ffb624"/>
        </g>
        <g id="Group_692" data-name="Group 692">
          <path id="Path_425" data-name="Path 425" d="M722.2,325.457a2.263,2.263,0,1,1,2.27-2.263A2.266,2.266,0,0,1,722.2,325.457Z" transform="translate(-719.925 -320.931)" fill="#ffb624"/>
        </g>
      </g>
      <g id="Group_699" data-name="Group 699" transform="translate(0 28.018)">
        <g id="Group_694" data-name="Group 694" transform="translate(102.977 0)">
          <path id="Path_426" data-name="Path 426" d="M794.363,345.093a2.263,2.263,0,1,1,2.27-2.263A2.266,2.266,0,0,1,794.363,345.093Z" transform="translate(-792.093 -340.567)" fill="#ffb624"/>
        </g>
        <g id="Group_695" data-name="Group 695" transform="translate(77.233)">
          <ellipse id="Ellipse_55" data-name="Ellipse 55" cx="2.27" cy="2.264" rx="2.27" ry="2.264" fill="#ffb624"/>
        </g>
        <g id="Group_696" data-name="Group 696" transform="translate(51.489 0)">
          <path id="Path_427" data-name="Path 427" d="M758.279,345.093a2.263,2.263,0,1,1,2.27-2.263A2.266,2.266,0,0,1,758.279,345.093Z" transform="translate(-756.009 -340.567)" fill="#ffb624"/>
        </g>
        <g id="Group_697" data-name="Group 697" transform="translate(25.744)">
          <ellipse id="Ellipse_56" data-name="Ellipse 56" cx="2.27" cy="2.264" rx="2.27" ry="2.264" fill="#ffb624"/>
        </g>
        <g id="Group_698" data-name="Group 698" transform="translate(0 0)">
          <path id="Path_428" data-name="Path 428" d="M722.2,345.093a2.263,2.263,0,1,1,2.27-2.263A2.266,2.266,0,0,1,722.2,345.093Z" transform="translate(-719.925 -340.567)" fill="#ffb624"/>
        </g>
      </g>
      <g id="Group_705" data-name="Group 705" transform="translate(0 56.038)">
        <g id="Group_700" data-name="Group 700" transform="translate(102.977)">
          <path id="Path_429" data-name="Path 429" d="M794.363,364.731a2.264,2.264,0,1,1,2.27-2.263A2.267,2.267,0,0,1,794.363,364.731Z" transform="translate(-792.093 -360.203)" fill="#ffb624"/>
        </g>
        <g id="Group_701" data-name="Group 701" transform="translate(77.233)">
          <path id="Path_430" data-name="Path 430" d="M776.321,364.731a2.264,2.264,0,1,1,2.27-2.263A2.267,2.267,0,0,1,776.321,364.731Z" transform="translate(-774.051 -360.203)" fill="#ffb624"/>
        </g>
        <g id="Group_702" data-name="Group 702" transform="translate(51.489)">
          <path id="Path_431" data-name="Path 431" d="M758.279,364.731a2.264,2.264,0,1,1,2.27-2.263A2.267,2.267,0,0,1,758.279,364.731Z" transform="translate(-756.009 -360.203)" fill="#ffb624"/>
        </g>
        <g id="Group_703" data-name="Group 703" transform="translate(25.744)">
          <path id="Path_432" data-name="Path 432" d="M740.237,364.731a2.264,2.264,0,1,1,2.27-2.263A2.267,2.267,0,0,1,740.237,364.731Z" transform="translate(-737.967 -360.203)" fill="#ffb624"/>
        </g>
        <g id="Group_704" data-name="Group 704">
          <path id="Path_433" data-name="Path 433" d="M722.2,364.731a2.264,2.264,0,1,1,2.27-2.263A2.267,2.267,0,0,1,722.2,364.731Z" transform="translate(-719.925 -360.203)" fill="#ffb624"/>
        </g>
      </g>
      <g id="Group_711" data-name="Group 711" transform="translate(0 84.056)">
        <g id="Group_706" data-name="Group 706" transform="translate(102.977)">
          <path id="Path_434" data-name="Path 434" d="M794.363,384.367a2.264,2.264,0,1,1,2.27-2.263A2.266,2.266,0,0,1,794.363,384.367Z" transform="translate(-792.093 -379.839)" fill="#ffb624"/>
        </g>
        <g id="Group_707" data-name="Group 707" transform="translate(77.233 0.001)">
          <ellipse id="Ellipse_57" data-name="Ellipse 57" cx="2.27" cy="2.264" rx="2.27" ry="2.264" fill="#ffb624"/>
        </g>
        <g id="Group_708" data-name="Group 708" transform="translate(51.489)">
          <path id="Path_435" data-name="Path 435" d="M758.279,384.367a2.264,2.264,0,1,1,2.27-2.263A2.266,2.266,0,0,1,758.279,384.367Z" transform="translate(-756.009 -379.839)" fill="#ffb624"/>
        </g>
        <g id="Group_709" data-name="Group 709" transform="translate(25.744 0.001)">
          <ellipse id="Ellipse_58" data-name="Ellipse 58" cx="2.27" cy="2.264" rx="2.27" ry="2.264" fill="#ffb624"/>
        </g>
        <g id="Group_710" data-name="Group 710">
          <path id="Path_436" data-name="Path 436" d="M722.2,384.367a2.264,2.264,0,1,1,2.27-2.263A2.266,2.266,0,0,1,722.2,384.367Z" transform="translate(-719.925 -379.839)" fill="#ffb624"/>
        </g>
      </g>
    </g>
  </g>
</svg>
